<mxfile host="app.diagrams.net" modified="2023-07-26T08:07:44.334Z" agent="Mozilla/5.0 (Windows NT 10.0; Win64; x64) AppleWebKit/537.36 (KHTML, like Gecko) Chrome/115.0.0.0 Safari/537.36 Edg/115.0.1901.183" etag="RhZ6PW_BFTdkXC6qsNJN" version="21.3.7" type="github">
  <diagram name="第 1 页" id="hKotlRG_EhDGlzBCMVON">
    <mxGraphModel dx="1149" dy="645" grid="1" gridSize="10" guides="1" tooltips="1" connect="1" arrows="1" fold="1" page="1" pageScale="1" pageWidth="827" pageHeight="1169" math="0" shadow="0">
      <root>
        <mxCell id="0" />
        <mxCell id="1" parent="0" />
        <mxCell id="Xdsy7XZofjhry8KeQ4Lq-1" value="Pool" style="swimlane;childLayout=stackLayout;resizeParent=1;resizeParentMax=0;startSize=20;html=1;" vertex="1" parent="1">
          <mxGeometry x="190.00000000000045" y="160" width="470" height="490" as="geometry" />
        </mxCell>
        <mxCell id="Xdsy7XZofjhry8KeQ4Lq-2" value="&lt;font style=&quot;font-size: 14px;&quot;&gt;vss&lt;/font&gt;" style="swimlane;startSize=20;html=1;fillColor=#dae8fc;strokeColor=#6c8ebf;" vertex="1" parent="Xdsy7XZofjhry8KeQ4Lq-1">
          <mxGeometry y="20" width="150" height="470" as="geometry" />
        </mxCell>
        <mxCell id="Xdsy7XZofjhry8KeQ4Lq-5" value="&lt;font style=&quot;font-size: 14px;&quot;&gt;供应商登录&lt;/font&gt;" style="rounded=1;whiteSpace=wrap;html=1;fillColor=#dae8fc;strokeColor=#6c8ebf;" vertex="1" parent="Xdsy7XZofjhry8KeQ4Lq-2">
          <mxGeometry x="27.5" y="40" width="95" height="40" as="geometry" />
        </mxCell>
        <mxCell id="Xdsy7XZofjhry8KeQ4Lq-6" value="&lt;font style=&quot;font-size: 14px;&quot;&gt;身份校验/&lt;br&gt;参数校验&lt;/font&gt;" style="rounded=0;whiteSpace=wrap;html=1;fillColor=#dae8fc;strokeColor=#6c8ebf;" vertex="1" parent="Xdsy7XZofjhry8KeQ4Lq-2">
          <mxGeometry x="27.5" y="110" width="95" height="50" as="geometry" />
        </mxCell>
        <mxCell id="Xdsy7XZofjhry8KeQ4Lq-8" value="&lt;font style=&quot;font-size: 13px;&quot;&gt;vss账号对应vss库里是否有分公司&lt;/font&gt;" style="rhombus;whiteSpace=wrap;html=1;fillColor=#dae8fc;strokeColor=#6c8ebf;" vertex="1" parent="Xdsy7XZofjhry8KeQ4Lq-2">
          <mxGeometry x="14" y="190" width="122" height="100" as="geometry" />
        </mxCell>
        <mxCell id="Xdsy7XZofjhry8KeQ4Lq-13" value="有" style="text;html=1;strokeColor=none;fillColor=none;align=center;verticalAlign=middle;whiteSpace=wrap;rounded=0;" vertex="1" parent="Xdsy7XZofjhry8KeQ4Lq-2">
          <mxGeometry x="89.99999999999955" y="180" width="60" height="30" as="geometry" />
        </mxCell>
        <mxCell id="Xdsy7XZofjhry8KeQ4Lq-19" value="无" style="text;html=1;strokeColor=none;fillColor=none;align=center;verticalAlign=middle;whiteSpace=wrap;rounded=0;" vertex="1" parent="Xdsy7XZofjhry8KeQ4Lq-2">
          <mxGeometry x="89.99999999999955" y="270" width="60" height="30" as="geometry" />
        </mxCell>
        <mxCell id="Xdsy7XZofjhry8KeQ4Lq-21" value="&lt;font style=&quot;font-size: 14px;&quot;&gt;供应商信息&lt;/font&gt;" style="rounded=0;whiteSpace=wrap;html=1;fillColor=#dae8fc;strokeColor=#6c8ebf;" vertex="1" parent="Xdsy7XZofjhry8KeQ4Lq-2">
          <mxGeometry x="27.5" y="350" width="105" height="30" as="geometry" />
        </mxCell>
        <mxCell id="Xdsy7XZofjhry8KeQ4Lq-23" value="&lt;font style=&quot;font-size: 14px;&quot;&gt;获取权限列表&lt;/font&gt;" style="rounded=1;whiteSpace=wrap;html=1;fillColor=#dae8fc;strokeColor=#6c8ebf;" vertex="1" parent="Xdsy7XZofjhry8KeQ4Lq-2">
          <mxGeometry x="20" y="405" width="110" height="45" as="geometry" />
        </mxCell>
        <mxCell id="Xdsy7XZofjhry8KeQ4Lq-3" value="&lt;font style=&quot;font-size: 14px;&quot;&gt;srm&lt;/font&gt;" style="swimlane;startSize=20;html=1;fillColor=#d5e8d4;strokeColor=#82b366;" vertex="1" parent="Xdsy7XZofjhry8KeQ4Lq-1">
          <mxGeometry x="150" y="20" width="160" height="470" as="geometry" />
        </mxCell>
        <mxCell id="Xdsy7XZofjhry8KeQ4Lq-9" value="&lt;font style=&quot;font-size: 14px;&quot;&gt;获取供应商信息&lt;/font&gt;" style="rounded=0;whiteSpace=wrap;html=1;fillColor=#d5e8d4;strokeColor=#82b366;" vertex="1" parent="Xdsy7XZofjhry8KeQ4Lq-3">
          <mxGeometry x="27.499999999999545" y="130" width="120" height="60" as="geometry" />
        </mxCell>
        <mxCell id="Xdsy7XZofjhry8KeQ4Lq-20" style="edgeStyle=orthogonalEdgeStyle;rounded=0;orthogonalLoop=1;jettySize=auto;html=1;exitX=0.5;exitY=1;exitDx=0;exitDy=0;entryX=0.5;entryY=0;entryDx=0;entryDy=0;" edge="1" parent="Xdsy7XZofjhry8KeQ4Lq-3" source="Xdsy7XZofjhry8KeQ4Lq-10" target="Xdsy7XZofjhry8KeQ4Lq-9">
          <mxGeometry relative="1" as="geometry" />
        </mxCell>
        <mxCell id="Xdsy7XZofjhry8KeQ4Lq-10" value="&lt;span style=&quot;font-size: 14px;&quot;&gt;获取分公司信息&lt;/span&gt;" style="rounded=0;whiteSpace=wrap;html=1;fillColor=#d5e8d4;strokeColor=#82b366;" vertex="1" parent="Xdsy7XZofjhry8KeQ4Lq-3">
          <mxGeometry x="40" y="50" width="95" height="50" as="geometry" />
        </mxCell>
        <mxCell id="Xdsy7XZofjhry8KeQ4Lq-4" value="&lt;span style=&quot;font-size: 14px;&quot;&gt;权限系统&lt;/span&gt;" style="swimlane;startSize=20;html=1;fillColor=#ffe6cc;strokeColor=#d79b00;" vertex="1" parent="Xdsy7XZofjhry8KeQ4Lq-1">
          <mxGeometry x="310" y="20" width="160" height="470" as="geometry" />
        </mxCell>
        <mxCell id="Xdsy7XZofjhry8KeQ4Lq-24" value="&lt;span style=&quot;font-size: 14px;&quot;&gt;权限列表&lt;/span&gt;" style="rounded=0;whiteSpace=wrap;html=1;fillColor=#ffe6cc;strokeColor=#d79b00;" vertex="1" parent="Xdsy7XZofjhry8KeQ4Lq-4">
          <mxGeometry x="40" y="408.75" width="80" height="37.5" as="geometry" />
        </mxCell>
        <mxCell id="Xdsy7XZofjhry8KeQ4Lq-11" style="edgeStyle=orthogonalEdgeStyle;rounded=0;orthogonalLoop=1;jettySize=auto;html=1;exitX=1;exitY=0.5;exitDx=0;exitDy=0;entryX=0;entryY=0.5;entryDx=0;entryDy=0;" edge="1" parent="Xdsy7XZofjhry8KeQ4Lq-1" source="Xdsy7XZofjhry8KeQ4Lq-8" target="Xdsy7XZofjhry8KeQ4Lq-10">
          <mxGeometry relative="1" as="geometry" />
        </mxCell>
        <mxCell id="Xdsy7XZofjhry8KeQ4Lq-12" style="edgeStyle=orthogonalEdgeStyle;rounded=0;orthogonalLoop=1;jettySize=auto;html=1;exitX=0.5;exitY=1;exitDx=0;exitDy=0;entryX=0;entryY=0.5;entryDx=0;entryDy=0;" edge="1" parent="Xdsy7XZofjhry8KeQ4Lq-1" source="Xdsy7XZofjhry8KeQ4Lq-8" target="Xdsy7XZofjhry8KeQ4Lq-9">
          <mxGeometry relative="1" as="geometry" />
        </mxCell>
        <mxCell id="Xdsy7XZofjhry8KeQ4Lq-22" style="edgeStyle=orthogonalEdgeStyle;rounded=0;orthogonalLoop=1;jettySize=auto;html=1;exitX=0.5;exitY=1;exitDx=0;exitDy=0;entryX=1;entryY=0.5;entryDx=0;entryDy=0;" edge="1" parent="Xdsy7XZofjhry8KeQ4Lq-1" source="Xdsy7XZofjhry8KeQ4Lq-9" target="Xdsy7XZofjhry8KeQ4Lq-21">
          <mxGeometry relative="1" as="geometry" />
        </mxCell>
        <mxCell id="Xdsy7XZofjhry8KeQ4Lq-25" style="edgeStyle=orthogonalEdgeStyle;rounded=0;orthogonalLoop=1;jettySize=auto;html=1;exitX=1;exitY=0.5;exitDx=0;exitDy=0;" edge="1" parent="Xdsy7XZofjhry8KeQ4Lq-1" source="Xdsy7XZofjhry8KeQ4Lq-23" target="Xdsy7XZofjhry8KeQ4Lq-24">
          <mxGeometry relative="1" as="geometry" />
        </mxCell>
      </root>
    </mxGraphModel>
  </diagram>
</mxfile>
